<svg width="85" height="13" viewBox="0 0 85 13" fill="none" xmlns="http://www.w3.org/2000/svg">
<path d="M10.8912 8.08682C10.714 8.25855 10.6325 8.5069 10.6729 8.75046L11.2811 12.1166C11.3324 12.4019 11.212 12.6906 10.9733 12.8555C10.7393 13.0265 10.428 13.047 10.1728 12.9102L7.14261 11.3298C7.03725 11.2737 6.92026 11.2436 6.80053 11.2401H6.61512C6.55081 11.2497 6.48786 11.2702 6.43039 11.3017L3.39953 12.8897C3.2497 12.9649 3.08003 12.9916 2.91378 12.9649C2.50875 12.8883 2.2385 12.5024 2.30487 12.0953L2.91378 8.72925C2.95414 8.48364 2.87273 8.23392 2.69553 8.05946L0.225005 5.66488C0.0183874 5.46442 -0.0534499 5.16338 0.040965 4.89178C0.132643 4.62085 0.366628 4.42313 0.649188 4.37866L4.04949 3.88538C4.30811 3.85869 4.53525 3.70134 4.65156 3.46872L6.14989 0.396816C6.18546 0.3284 6.2313 0.265456 6.28672 0.212091L6.34829 0.1642C6.38045 0.128623 6.41739 0.0992041 6.45844 0.0752583L6.53302 0.0478917L6.64933 0H6.93736C7.19461 0.0266825 7.42106 0.18062 7.53943 0.410499L9.05759 3.46872C9.16706 3.69244 9.37983 3.84775 9.62545 3.88538L13.0258 4.37866C13.3131 4.41971 13.5532 4.61812 13.6483 4.89178C13.738 5.16612 13.6607 5.46715 13.4499 5.66488L10.8912 8.08682Z" fill="#FFAB07"/>
<path d="M34.5763 8.08682C34.3991 8.25855 34.3177 8.5069 34.358 8.75046L34.9662 12.1166C35.0176 12.4019 34.8971 12.6906 34.6584 12.8555C34.4244 13.0265 34.1131 13.047 33.8579 12.9102L30.8277 11.3298C30.7224 11.2737 30.6054 11.2436 30.4856 11.2401H30.3002C30.2359 11.2497 30.173 11.2702 30.1155 11.3017L27.0847 12.8897C26.9348 12.9649 26.7651 12.9916 26.5989 12.9649C26.1939 12.8883 25.9236 12.5024 25.99 12.0953L26.5989 8.72925C26.6393 8.48364 26.5578 8.23392 26.3806 8.05946L23.9101 5.66488C23.7035 5.46442 23.6317 5.16338 23.7261 4.89178C23.8178 4.62085 24.0517 4.42313 24.3343 4.37866L27.7346 3.88538C27.9932 3.85869 28.2204 3.70134 28.3367 3.46872L29.835 0.396816C29.8706 0.3284 29.9164 0.265456 29.9718 0.212091L30.0334 0.1642C30.0656 0.128623 30.1025 0.0992041 30.1436 0.0752583L30.2181 0.0478917L30.3344 0H30.6225C30.8797 0.0266825 31.1062 0.18062 31.2245 0.410499L32.7427 3.46872C32.8522 3.69244 33.0649 3.84775 33.3106 3.88538L36.7109 4.37866C36.9982 4.41971 37.2384 4.61812 37.3335 4.89178C37.4231 5.16612 37.3458 5.46715 37.1351 5.66488L34.5763 8.08682Z" fill="#FFAB07"/>
<path d="M58.2614 8.08682C58.0842 8.25855 58.0027 8.5069 58.0431 8.75046L58.6513 12.1166C58.7026 12.4019 58.5822 12.6906 58.3435 12.8555C58.1095 13.0265 57.7982 13.047 57.543 12.9102L54.5128 11.3298C54.4075 11.2737 54.2905 11.2436 54.1707 11.2401H53.9853C53.921 11.2497 53.8581 11.2702 53.8006 11.3017L50.7697 12.8897C50.6199 12.9649 50.4502 12.9916 50.284 12.9649C49.879 12.8883 49.6087 12.5024 49.6751 12.0953L50.284 8.72925C50.3244 8.48364 50.2429 8.23392 50.0657 8.05946L47.5952 5.66488C47.3886 5.46442 47.3168 5.16338 47.4112 4.89178C47.5029 4.62085 47.7368 4.42313 48.0194 4.37866L51.4197 3.88538C51.6783 3.85869 51.9055 3.70134 52.0218 3.46872L53.5201 0.396816C53.5557 0.3284 53.6015 0.265456 53.6569 0.212091L53.7185 0.1642C53.7507 0.128623 53.7876 0.0992041 53.8287 0.0752583L53.9032 0.0478917L54.0195 0H54.3076C54.5648 0.0266825 54.7913 0.18062 54.9096 0.410499L56.4278 3.46872C56.5373 3.69244 56.75 3.84775 56.9957 3.88538L60.396 4.37866C60.6833 4.41971 60.9235 4.61812 61.0185 4.89178C61.1082 5.16612 61.0309 5.46715 60.8201 5.66488L58.2614 8.08682Z" fill="#FFAB07"/>
<path d="M81.9465 8.08682C81.7693 8.25855 81.6879 8.5069 81.7282 8.75046L82.3365 12.1166C82.3878 12.4019 82.2674 12.6906 82.0286 12.8555C81.7946 13.0265 81.4833 13.047 81.2281 12.9102L78.1979 11.3298C78.0926 11.2737 77.9756 11.2436 77.8559 11.2401H77.6704C77.6061 11.2497 77.5432 11.2702 77.4857 11.3017L74.4549 12.8897C74.305 12.9649 74.1354 12.9916 73.9691 12.9649C73.5641 12.8883 73.2938 12.5024 73.3602 12.0953L73.9691 8.72925C74.0095 8.48364 73.9281 8.23392 73.7509 8.05946L71.2803 5.66488C71.0737 5.46442 71.0019 5.16338 71.0963 4.89178C71.188 4.62085 71.422 4.42313 71.7045 4.37866L75.1048 3.88538C75.3634 3.85869 75.5906 3.70134 75.7069 3.46872L77.2052 0.396816C77.2408 0.3284 77.2866 0.265456 77.342 0.212091L77.4036 0.1642C77.4358 0.128623 77.4727 0.0992041 77.5138 0.0752583L77.5883 0.0478917L77.7047 0H77.9927C78.2499 0.0266825 78.4764 0.18062 78.5948 0.410499L80.1129 3.46872C80.2224 3.69244 80.4352 3.84775 80.6808 3.88538L84.0811 4.37866C84.3684 4.41971 84.6086 4.61812 84.7037 4.89178C84.7933 5.16612 84.716 5.46715 84.5053 5.66488L81.9465 8.08682Z" fill="#FFAB07"/>
</svg>
