<svg xmlns="http://www.w3.org/2000/svg" xmlns:xlink="http://www.w3.org/1999/xlink" version="1.1" width="15" height="20" viewBox="0 0 1000 1000" xml:space="preserve">
<desc>Created with Fabric.js 3.5.0</desc>
<defs>
</defs>
<rect x="0" y="0" fill="#ffffff"/>
<g transform="matrix(-60.5065 0 0 -60.6061 500.7467 499.9998)" id="40616">
<path style="stroke: none; stroke-width: 1; stroke-dasharray: none; stroke-linecap: butt; stroke-dashoffset: 0; stroke-linejoin: miter; stroke-miterlimit: 4; is-custom-font: none; font-file-url: none; fill: rgb(103,48,15); fill-rule: evenodd; opacity: 1;" vector-effect="non-scaling-stroke" transform=" translate(-7.5, -5)" d="M 6.52917 5.0055 L 6.5305 5.30058 C 6.54058 6.471 6.61117 7.51525 6.73283 8.177 C 6.73283 8.18892 6.86558 8.84525 6.95008 9.06367 C 7.08283 9.3795 7.32283 9.6475 7.62375 9.81733 C 7.86467 9.9385 8.11733 10 8.38192 10 C 8.58983 9.99033 8.93283 9.88575 9.17758 9.798 L 9.381 9.72 C 10.7282 9.18483 13.3037 7.43617 14.29 6.36683 L 14.3628 6.29208 L 14.6873 5.94183 C 14.8918 5.67375 15 5.34608 15 4.99358 C 15 4.67783 14.9037 4.362 14.7109 4.10683 C 14.6532 4.02417 14.5603 3.91808 14.4776 3.8285 L 14.1617 3.49783 C 13.0746 2.39643 10.721 0.851525 9.501 0.339633 C 9.501 0.328625 8.74283 0.0119333 8.38192 0 H 8.33375 C 7.78008 0 7.26283 0.315767 6.99825 0.826142 C 6.926 0.965667 6.85667 1.23898 6.804 1.47902 L 6.70917 1.93226 C 6.601 2.6611 6.52917 3.77917 6.52917 5.0055 Z M 1.25271 3.73475 C 0.5609 3.73475 0 4.30108 0 4.99967 C 0 5.69817 0.5609 6.26458 1.25271 6.26458 L 4.3354 5.99192 C 4.87813 5.99192 5.31812 5.54858 5.31812 4.99967 C 5.31812 4.45158 4.87813 4.00733 4.3354 4.00733 L 1.25271 3.73475 Z" stroke-linecap="round"/>
</g>
</svg>