<svg width="18" height="16" viewBox="0 0 18 16" fill="none" xmlns="http://www.w3.org/2000/svg">
<path d="M1.77778 1.77778V14.2222H16V1.77778H1.77778ZM0.888889 0H16.8889C17.1246 0 17.3507 0.0936505 17.5174 0.260349C17.6841 0.427048 17.7778 0.653141 17.7778 0.888889V15.1111C17.7778 15.3469 17.6841 15.573 17.5174 15.7397C17.3507 15.9064 17.1246 16 16.8889 16H0.888889C0.653141 16 0.427049 15.9064 0.26035 15.7397C0.0936505 15.573 0 15.3469 0 15.1111V0.888889C0 0.653141 0.0936505 0.427048 0.26035 0.260349C0.427049 0.0936505 0.653141 0 0.888889 0ZM11.3716 6.03822L9.77778 4.44444H14.2222V8.88889L12.6284 7.29511L9.19378 10.7298L7.30844 8.84444L4.79378 11.3582L3.53689 10.1013L7.30844 6.32978L9.19378 8.216L11.3716 6.03822Z" fill="#67300F"/>
</svg>
