<svg width="50" height="50" viewBox="0 0 50 50" fill="none" xmlns="http://www.w3.org/2000/svg">
<rect width="50" height="50" rx="10" fill="#EEEEEE"/>
<path d="M27.6667 17C28.0875 17 28.4286 17.3411 28.4286 17.7619V18.5238H32.2381V23.0952H30.6998L32.7921 28.8437C32.9263 29.1873 33 29.5612 33 29.9524C33 31.6355 31.6355 33 29.9524 33C28.5323 33 27.3391 32.0287 27.0008 30.7143H23.7611C23.4228 32.0287 22.2296 33 20.8095 33C19.328 33 18.0934 31.9429 17.8189 30.5418C17.3322 30.2873 17 29.7777 17 29.1905V21.5714C17 21.1506 17.3411 20.8095 17.7619 20.8095H23.0952C23.516 20.8095 23.8571 21.1506 23.8571 21.5714V25.381C23.8571 25.8017 24.1983 26.1429 24.619 26.1429H26.1429C26.5636 26.1429 26.9048 25.8017 26.9048 25.381V18.5238H24.619V17H27.6667ZM29.9524 28.4286C29.1108 28.4286 28.4286 29.1108 28.4286 29.9524C28.4286 30.794 29.1108 31.4762 29.9524 31.4762C30.794 31.4762 31.4762 30.794 31.4762 29.9524C31.4762 29.7693 31.4439 29.5937 31.3847 29.4311L31.3722 29.398C31.1505 28.8306 30.5984 28.4286 29.9524 28.4286ZM20.8095 28.4286C19.9679 28.4286 19.2857 29.1108 19.2857 29.9524C19.2857 30.794 19.9679 31.4762 20.8095 31.4762C21.6511 31.4762 22.3333 30.794 22.3333 29.9524C22.3333 29.1108 21.6511 28.4286 20.8095 28.4286ZM22.3333 22.3333H18.5238V23.8571H22.3333V22.3333ZM30.7143 20.0476H28.4286V21.5714H30.7143V20.0476Z" fill="#67300F"/>
</svg>
