<svg width="50" height="50" viewBox="0 0 50 50" fill="none" xmlns="http://www.w3.org/2000/svg">
<rect width="50" height="50" rx="10" fill="#EEEEEE"/>
<path d="M31.1111 31.2222H18.6667V32.1111C18.6667 32.3469 18.573 32.573 18.4063 32.7397C18.2396 32.9064 18.0135 33 17.7778 33H16.8889C16.6531 33 16.427 32.9064 16.2603 32.7397C16.0937 32.573 16 32.3469 16 32.1111V24.1111L18.2338 18.1538C18.3608 17.8148 18.5883 17.5228 18.8858 17.3166C19.1833 17.1104 19.5367 17 19.8987 17H29.8791C30.2411 17 30.5944 17.1104 30.892 17.3166C31.1895 17.5228 31.4169 17.8148 31.544 18.1538L33.7778 24.1111V32.1111C33.7778 32.3469 33.6841 32.573 33.5174 32.7397C33.3507 32.9064 33.1246 33 32.8889 33H32C31.7643 33 31.5382 32.9064 31.3715 32.7397C31.2048 32.573 31.1111 32.3469 31.1111 32.1111V31.2222ZM17.8987 24.1111H31.8791L29.8791 18.7778H19.8987L17.8987 24.1111ZM20 28.5556C20.3536 28.5556 20.6928 28.4151 20.9428 28.165C21.1929 27.915 21.3333 27.5758 21.3333 27.2222C21.3333 26.8686 21.1929 26.5295 20.9428 26.2794C20.6928 26.0294 20.3536 25.8889 20 25.8889C19.6464 25.8889 19.3072 26.0294 19.0572 26.2794C18.8071 26.5295 18.6667 26.8686 18.6667 27.2222C18.6667 27.5758 18.8071 27.915 19.0572 28.165C19.3072 28.4151 19.6464 28.5556 20 28.5556ZM29.7778 28.5556C30.1314 28.5556 30.4705 28.4151 30.7206 28.165C30.9706 27.915 31.1111 27.5758 31.1111 27.2222C31.1111 26.8686 30.9706 26.5295 30.7206 26.2794C30.4705 26.0294 30.1314 25.8889 29.7778 25.8889C29.4242 25.8889 29.085 26.0294 28.835 26.2794C28.5849 26.5295 28.4444 26.8686 28.4444 27.2222C28.4444 27.5758 28.5849 27.915 28.835 28.165C29.085 28.4151 29.4242 28.5556 29.7778 28.5556Z" fill="#67300F"/>
</svg>
