<svg width="50" height="50" viewBox="0 0 50 50" fill="none" xmlns="http://www.w3.org/2000/svg">
<rect width="50" height="50" rx="10" fill="#EEEEEE"/>
<path d="M26.2501 17C26.6964 17 27.1251 17.1768 27.4408 17.4935L31.5065 21.5592C31.8223 21.8749 32 22.3036 32 22.7499V28.7895H33.6842V30.4737H26.8413C26.4665 31.9272 25.1486 33 23.5789 33C22.0093 33 20.6905 31.9272 20.3166 30.4737H16.8421C16.3773 30.4737 16 30.0964 16 29.6316V18.6842C16 17.7537 16.7537 17 17.6842 17H26.2501ZM23.5789 27.9474C22.6484 27.9474 21.8947 28.7011 21.8947 29.6316C21.8947 30.5621 22.6484 31.3158 23.5789 31.3158C24.5095 31.3158 25.2632 30.5621 25.2632 29.6316C25.2632 28.7011 24.5095 27.9474 23.5789 27.9474ZM26.1053 20.3684H19.3684V25.4211H26.1053V20.3684ZM24.4211 22.0526V23.7368H21.0526V22.0526H24.4211Z" fill="#67300F"/>
</svg>
