<svg width="26" height="28" viewBox="0 0 26 28" fill="none" xmlns="http://www.w3.org/2000/svg">
<path d="M4.0625 5.27856C2.72594 5.27856 1.625 6.42954 1.625 7.82686V19.7189C1.625 21.1162 2.72594 22.2672 4.0625 22.2672H21.9375C23.2741 22.2672 24.375 21.1162 24.375 19.7189V7.82686C24.375 6.42954 23.2741 5.27856 21.9375 5.27856H4.0625ZM4.0625 6.97743H21.9375C22.3974 6.97743 22.75 7.34608 22.75 7.82686V9.52572H4.0625V11.2246H22.75V19.7189C22.75 20.1997 22.3974 20.5683 21.9375 20.5683H4.0625C3.60263 20.5683 3.25 20.1997 3.25 19.7189V7.82686C3.25 7.34608 3.60263 6.97743 4.0625 6.97743Z" fill="black" fill-opacity="0.5"/>
<g clip-path="url(#clip0_1_2348)">
<path d="M8.54183 14.6749C8.41592 14.6269 8.28284 14.6028 8.14885 14.6038C7.71551 14.6038 7.40947 14.832 7.4073 15.1596C7.4046 15.4003 7.62478 15.5359 7.79135 15.6163C7.96224 15.699 8.01939 15.7511 8.01885 15.825C8.01776 15.9374 7.88235 15.9884 7.75641 15.9884C7.58335 15.9884 7.48883 15.9632 7.34339 15.9L7.28949 15.8737L7.22801 16.2508C7.33337 16.2967 7.52322 16.3361 7.7193 16.3395C8.17999 16.3395 8.48116 16.1127 8.48468 15.7641C8.48847 15.5719 8.3693 15.4266 8.11851 15.3066C7.96603 15.2287 7.87151 15.1766 7.87151 15.0976C7.87151 15.0277 7.95249 14.9529 8.12176 14.9529C8.23442 14.9501 8.34638 14.9722 8.45028 15.0177L8.49091 15.0367L8.55239 14.6723L8.54183 14.6749ZM9.66633 14.6344H9.32778C9.22243 14.6344 9.14308 14.6647 9.09703 14.774L8.44595 16.316H8.90664L8.99872 16.0631L9.56097 16.0637C9.57424 16.1229 9.61487 16.316 9.61487 16.316H10.0211L9.66633 14.6344ZM6.78412 14.6202H7.22314L6.94851 16.3027H6.51003L6.78412 14.6196V14.6202ZM5.66964 15.5475L5.71514 15.7811L6.14414 14.6344H6.60916L5.91826 16.3137H5.45433L5.07516 14.8917C5.06902 14.8683 5.0546 14.8482 5.0348 14.8354C4.89814 14.7616 4.75334 14.7056 4.60364 14.6686L4.6096 14.6332H5.3162C5.41208 14.6372 5.48926 14.6686 5.51499 14.7757L5.66937 15.5484L5.66964 15.5475ZM9.12466 15.7191L9.29962 15.2485C9.29745 15.2536 9.33564 15.1514 9.35785 15.0882L9.38791 15.2335L9.48947 15.7188H9.12439L9.12466 15.7191Z" fill="#2E3EB6"/>
</g>
<g clip-path="url(#clip1_1_2348)">
<path d="M16.1816 13.5005H17.9374V17.7434H16.1816V13.5005Z" fill="#FF5F00"/>
<path d="M16.2929 15.622C16.2929 14.76 16.5939 13.9953 17.0565 13.5005C16.7165 13.1407 16.2873 12.9233 15.8191 12.9233C14.7099 12.9233 13.8125 14.1302 13.8125 15.622C13.8125 17.1138 14.7099 18.3207 15.8191 18.3207C16.2873 18.3207 16.7165 18.1033 17.0565 17.7435C16.5939 17.2562 16.2929 16.4841 16.2929 15.622Z" fill="#EB001B"/>
<path d="M20.3065 15.622C20.3065 17.1138 19.4091 18.3207 18.2999 18.3207C17.8317 18.3207 17.4025 18.1033 17.0625 17.7435C17.5307 17.2487 17.8261 16.4841 17.8261 15.622C17.8261 14.76 17.5251 13.9953 17.0625 13.5005C17.4025 13.1407 17.8317 12.9233 18.2999 12.9233C19.4091 12.9233 20.3065 14.1377 20.3065 15.622Z" fill="#F79E1B"/>
</g>
<defs>
<clipPath id="clip0_1_2348">
<rect width="6.5" height="6.79545" fill="white" transform="translate(4.0625 12.074)"/>
</clipPath>
<clipPath id="clip1_1_2348">
<rect width="6.5" height="6.79545" fill="white" transform="translate(13.8125 12.9233)"/>
</clipPath>
</defs>
</svg>
