<svg width="15" height="15" viewBox="0 0 15 15" fill="none" xmlns="http://www.w3.org/2000/svg">
<path d="M3.32433 9.06462L2.80215 11.0138L0.893816 11.0541C0.323468 9.99638 0 8.78607 0 7.49996C0 6.25629 0.302468 5.08348 0.838582 4.05078H0.839023L2.53798 4.36225L3.28224 6.05106C3.12642 6.5052 3.04153 6.9927 3.04153 7.49996C3.04162 8.05045 3.14133 8.57801 3.32433 9.06462Z" fill="#FBBB00"/>
<path d="M14.8688 6.09961C14.9549 6.55331 14.9998 7.02184 14.9998 7.50069C14.9998 8.03768 14.9434 8.56144 14.8359 9.06667C14.4708 10.7858 13.5168 12.2871 12.1952 13.3494L12.1948 13.3491L10.0549 13.2398L9.75199 11.3491C10.6289 10.8349 11.3142 10.0301 11.6752 9.06667H7.66479V6.09961H11.7337H14.8688Z" fill="#518EF8"/>
<path d="M12.1947 13.3481L12.1951 13.3485C10.9099 14.3816 9.27711 14.9997 7.4998 14.9997C4.64365 14.9997 2.16046 13.4033 0.893677 11.0541L3.32419 9.06445C3.95753 10.7549 5.5882 11.9581 7.4998 11.9581C8.32153 11.9581 9.09129 11.736 9.7519 11.3482L12.1947 13.3481Z" fill="#28B446"/>
<path d="M12.2872 1.72663L9.85752 3.71573C9.17388 3.28841 8.36583 3.04153 7.49998 3.04153C5.54506 3.04153 3.88395 4.30011 3.28228 6.05104L0.839064 4.05076H0.838623C2.08688 1.64422 4.60139 0 7.49998 0C9.31973 0 10.9883 0.648215 12.2872 1.72663Z" fill="#F14336"/>
</svg>
