<svg width="25" height="26" viewBox="0 0 25 26" fill="none" xmlns="http://www.w3.org/2000/svg">
<path opacity="0.4" fill-rule="evenodd" clip-rule="evenodd" d="M4.75586 23.997C4.75586 22.8826 5.58278 21.9805 6.60429 21.9805C7.61364 21.9805 8.44059 22.8826 8.44059 23.997C8.44059 25.0981 7.61364 26.0002 6.60429 26.0002C5.58278 26.0002 4.75586 25.0981 4.75586 23.997ZM18.4368 23.997C18.4368 22.8826 19.2637 21.9805 20.2852 21.9805C21.2946 21.9805 22.1215 22.8826 22.1215 23.997C22.1215 25.0981 21.2946 26.0002 20.2852 26.0002C19.2637 26.0002 18.4368 25.0981 18.4368 23.997Z" fill="#67300F"/>
<path fill-rule="evenodd" clip-rule="evenodd" d="M22.1215 5.10671C22.8633 5.10671 23.3497 5.38531 23.8362 5.99557C24.3226 6.60583 24.4077 7.48142 24.2982 8.27608L23.143 16.9789C22.9241 18.6518 21.6107 19.8843 20.0663 19.8843H6.79883C5.18144 19.8843 3.84373 18.5311 3.70997 16.7812L2.59119 2.31942L0.754893 1.97449C0.268459 1.88163 -0.0720631 1.36423 0.0130628 0.833573C0.0981886 0.289647 0.572492 -0.0685473 1.07109 0.0110517L3.97142 0.488647C4.38489 0.569572 4.6889 0.939708 4.72538 1.39077L4.95644 4.36246C4.99293 4.78832 5.30913 5.10671 5.69827 5.10671H22.1215ZM14.752 12.004H18.1206C18.6313 12.004 19.0326 11.5529 19.0326 11.009C19.0326 10.4518 18.6313 10.014 18.1206 10.014H14.752C14.2413 10.014 13.84 10.4518 13.84 11.009C13.84 11.5529 14.2413 12.004 14.752 12.004Z" fill="#67300F"/>
</svg>
