<svg width="16" height="16" viewBox="0 0 16 16" fill="none" xmlns="http://www.w3.org/2000/svg">
<path fill-rule="evenodd" clip-rule="evenodd" d="M14.7228 5.71762L15.2991 6.29375C15.7553 6.74187 16.0035 7.35001 16.0035 7.99015C16.0115 8.6303 15.7633 9.23924 15.3151 9.69455C15.3098 9.70039 15.3044 9.70559 15.2991 9.71071C15.2964 9.71327 15.2938 9.71591 15.2911 9.71855L14.7228 10.2867C14.4986 10.5107 14.3705 10.8148 14.3705 11.1357V11.9591C14.3705 13.2874 13.2899 14.3684 11.9611 14.3684H11.1366C10.8164 14.3684 10.5123 14.4957 10.2881 14.7197L9.71178 15.2958C9.23951 15.7687 8.62313 16 8.00674 16C7.39036 16 6.77406 15.7687 6.30175 15.3046L5.7174 14.7197C5.49327 14.4957 5.18909 14.3684 4.8689 14.3684H4.04441C2.71562 14.3684 1.63498 13.2874 1.63498 11.9591V11.1357C1.63498 10.8148 1.50691 10.5107 1.28278 10.2787L0.706428 9.71055C-0.230124 8.77513 -0.238126 7.24598 0.698426 6.30256L1.28278 5.71762C1.50691 5.49357 1.63498 5.1895 1.63498 4.86142V4.04524C1.63498 2.71693 2.71562 1.63748 4.04441 1.63748H4.8689C5.18909 1.63748 5.49327 1.50865 5.7174 1.2846L6.29374 0.708466C7.23032 -0.234952 8.75924 -0.234952 9.70377 0.701264L10.2881 1.2846C10.5123 1.50865 10.8164 1.63748 11.1366 1.63748H11.9611C13.2899 1.63748 14.3705 2.71693 14.3705 4.04524V4.87023C14.3705 5.1895 14.4986 5.49357 14.7228 5.71762ZM5.94154 10.7588C6.13365 10.7588 6.30975 10.6868 6.43782 10.5507L10.5523 6.4386C10.8244 6.16652 10.8244 5.71762 10.5523 5.44556C10.2801 5.1743 9.83989 5.1743 9.56766 5.44556L5.45324 9.55852C5.18108 9.83058 5.18108 10.2787 5.45324 10.5507C5.58132 10.6868 5.75742 10.7588 5.94154 10.7588ZM9.35954 10.0546C9.35954 10.4467 9.67177 10.7588 10.064 10.7588C10.4482 10.7588 10.7604 10.4467 10.7604 10.0546C10.7604 9.67134 10.4482 9.35847 10.064 9.35847C9.67177 9.35847 9.35954 9.67134 9.35954 10.0546ZM5.94954 5.24551C6.33377 5.24551 6.64595 5.55758 6.64595 5.94167C6.64595 6.33456 6.33377 6.64584 5.94954 6.64584C5.56532 6.64584 5.24512 6.33456 5.24512 5.94167C5.24512 5.55758 5.56532 5.24551 5.94954 5.24551Z" fill="white"/>
</svg>
