<svg width="17" height="18" viewBox="0 0 17 18" fill="none" xmlns="http://www.w3.org/2000/svg">
<path fill-rule="evenodd" clip-rule="evenodd" d="M15.5901 5.44951L15.0719 4.55047C14.6337 3.78974 13.6623 3.52731 12.9005 3.96381C12.5379 4.17741 12.1052 4.23802 11.6979 4.13226C11.2905 4.02649 10.942 3.76304 10.7291 3.39999C10.5921 3.16924 10.5185 2.90641 10.5157 2.63809C10.5281 2.2079 10.3658 1.79103 10.0658 1.48244C9.76583 1.17385 9.35372 0.999817 8.92337 1H7.87957C7.45797 0.999992 7.05368 1.168 6.75627 1.46685C6.45885 1.7657 6.29278 2.17075 6.29481 2.59238C6.28232 3.46288 5.57303 4.16199 4.70243 4.1619C4.43411 4.15911 4.17128 4.08552 3.94052 3.94857C3.17875 3.51207 2.2074 3.7745 1.7691 4.53524L1.21291 5.44951C0.775128 6.20929 1.03399 7.18003 1.79196 7.6209C2.28464 7.90541 2.58815 8.43106 2.58815 8.99999C2.58815 9.56892 2.28464 10.0946 1.79196 10.379C1.03496 10.817 0.77581 11.7854 1.21291 12.5429L1.73862 13.4495C1.94399 13.8201 2.28855 14.0935 2.69608 14.2094C3.1036 14.3251 3.54049 14.2738 3.91005 14.0667C4.27335 13.8547 4.70628 13.7966 5.1126 13.9053C5.51893 14.0141 5.86499 14.2806 6.07385 14.6457C6.21081 14.8764 6.2844 15.1393 6.28719 15.4076C6.28719 16.2871 7.00016 17 7.87957 17H8.92337C9.79987 17 10.5116 16.2917 10.5157 15.4152C10.5137 14.9923 10.6809 14.5861 10.9799 14.287C11.279 13.9879 11.6852 13.8208 12.1081 13.8229C12.3758 13.83 12.6375 13.9033 12.87 14.0361C13.6298 14.474 14.6005 14.2151 15.0415 13.4571L15.5901 12.5429C15.8024 12.1784 15.8607 11.7443 15.752 11.3367C15.6433 10.9292 15.3766 10.5818 15.011 10.3714C14.6454 10.1611 14.3787 9.81364 14.27 9.40611C14.1613 8.99849 14.2196 8.56449 14.432 8.19999C14.57 7.95893 14.7699 7.759 15.011 7.6209C15.7644 7.18027 16.0227 6.2152 15.5901 5.45714V5.44951Z" stroke="#67300F" stroke-width="1.5" stroke-linecap="round" stroke-linejoin="round"/>
<path d="M8.4052 11.1933C9.61707 11.1933 10.5995 10.2108 10.5995 8.99898C10.5995 7.7871 9.61707 6.80469 8.4052 6.80469C7.19333 6.80469 6.21091 7.7871 6.21091 8.99898C6.21091 10.2108 7.19333 11.1933 8.4052 11.1933Z" stroke="#67300F" stroke-width="1.5" stroke-linecap="round" stroke-linejoin="round"/>
</svg>
