<svg width="22" height="16" viewBox="0 0 22 16" fill="none" xmlns="http://www.w3.org/2000/svg">
<path d="M15.9937 2.99883H18.9926L21.9914 7.05324V12.9949H19.9572C19.8384 13.8289 19.4226 14.592 18.7863 15.144C18.15 15.6961 17.3359 16 16.4935 16C15.6512 16 14.837 15.6961 14.2008 15.144C13.5645 14.592 13.1487 13.8289 13.0299 12.9949H7.96188C7.84305 13.8289 7.42731 14.592 6.79102 15.144C6.15473 15.6961 5.34063 16 4.49824 16C3.65585 16 2.84174 15.6961 2.20546 15.144C1.56917 14.592 1.15343 13.8289 1.0346 12.9949H0V0.999609C0 0.734496 0.105316 0.480242 0.292779 0.292779C0.480242 0.105316 0.734496 0 0.999609 0H14.9941C15.2592 0 15.5135 0.105316 15.701 0.292779C15.8884 0.480242 15.9937 0.734496 15.9937 0.999609V2.99883ZM15.9937 4.99804V7.99687H19.9922V7.71198L17.985 4.99804H15.9937Z" fill="#67300F"/>
</svg>
